<?xml version="1.0" standalone="no"?>
<!DOCTYPE svg PUBLIC "-//W3C//DTD SVG 20010904//EN"
 "http://www.w3.org/TR/2001/REC-SVG-20010904/DTD/svg10.dtd">
<svg version="1.0" xmlns="http://www.w3.org/2000/svg"
 width="128.000000pt" height="128.000000pt" viewBox="0 0 128.000000 128.000000"
 preserveAspectRatio="xMidYMid meet">

<g transform="translate(0.000000,128.000000) scale(0.100000,-0.100000)"
fill="#000000" stroke="none">
<path d="M826 1233 c-4 -4 -14 -23 -21 -41 l-14 -32 -36 17 c-35 17 -36 17
-62 -10 -26 -26 -27 -27 -11 -60 18 -37 10 -57 -22 -57 -24 0 -40 -21 -40 -50
0 -29 16 -50 40 -50 32 0 40 -20 22 -57 -16 -33 -15 -34 11 -60 26 -27 27 -27
62 -10 l35 17 18 -38 c15 -32 22 -37 52 -37 30 0 37 5 52 37 l18 38 35 -17
c35 -17 36 -17 62 10 27 26 27 27 10 62 l-17 35 38 18 c32 15 37 22 37 52 0
30 -5 37 -37 52 l-38 18 17 35 c17 35 17 36 -10 62 -26 27 -27 27 -62 10 l-35
-17 -18 38 c-13 29 -23 38 -47 40 -17 2 -34 -1 -39 -5z m56 -64 c14 -39 44
-51 82 -32 38 20 53 5 33 -33 -19 -38 -7 -68 32 -82 17 -6 31 -16 31 -22 0 -6
-14 -16 -31 -22 -39 -14 -51 -44 -32 -82 20 -38 5 -53 -33 -33 -38 19 -68 7
-82 -32 -6 -17 -16 -31 -22 -31 -6 0 -16 14 -22 31 -14 39 -44 51 -82 32 -38
-20 -53 -5 -33 33 19 38 7 68 -32 82 -39 14 -39 30 0 44 39 14 51 44 32 82
-20 38 -5 53 33 33 38 -19 68 -7 82 32 14 39 30 39 44 0z"/>
<path d="M825 1091 c-64 -27 -81 -110 -32 -158 60 -61 162 -19 162 67 0 66
-72 116 -130 91z m77 -48 c22 -20 23 -61 1 -85 -34 -38 -103 -11 -103 40 0 54
62 81 102 45z"/>
<path d="M1105 1188 c-11 -32 -22 -98 -17 -103 12 -12 30 -4 36 18 6 22 7 22
19 2 7 -12 12 -55 12 -105 0 -73 -4 -92 -27 -137 -23 -42 -25 -53 -14 -62 19
-16 53 43 74 127 15 63 12 112 -14 200 -6 21 -4 23 17 20 16 -2 25 2 27 14 2
12 -9 19 -48 27 -63 14 -60 14 -65 -1z"/>
<path d="M461 996 c-9 -11 -9 -16 1 -22 8 -5 -21 -13 -72 -20 -111 -15 -187
-45 -262 -102 -72 -55 -88 -76 -71 -93 9 -9 19 -5 40 17 75 80 191 133 308
142 62 4 69 3 57 -10 -10 -12 -10 -17 1 -26 10 -9 21 -4 47 23 l34 35 -35 36
c-30 30 -37 33 -48 20z"/>
<path d="M397 833 c-3 -5 -8 -25 -12 -45 -9 -48 -32 -52 -73 -14 l-32 30 -35
-18 c-37 -20 -42 -37 -25 -82 15 -38 -6 -59 -44 -44 -45 17 -62 12 -82 -25
l-18 -35 30 -32 c40 -43 34 -63 -19 -74 -42 -9 -42 -9 -42 -54 0 -45 0 -45 42
-54 53 -11 59 -31 19 -74 l-30 -32 18 -35 c20 -37 37 -42 82 -25 38 15 59 -6
44 -44 -17 -45 -12 -62 25 -82 l35 -18 32 30 c43 40 63 34 74 -19 9 -42 9 -42
54 -42 45 0 45 0 54 42 11 53 31 59 74 19 l32 -30 35 18 c37 20 42 37 25 82
-15 38 6 59 44 44 45 -17 62 -12 82 25 l18 35 -30 32 c-40 43 -34 63 19 74 42
9 42 9 42 54 0 45 0 45 -42 54 -53 11 -59 31 -19 74 l30 32 -18 35 c-20 37
-37 42 -82 25 -21 -8 -31 -8 -41 3 -11 10 -11 20 -3 41 17 45 12 62 -25 82
l-35 18 -32 -30 c-43 -40 -63 -34 -74 19 -9 40 -11 42 -51 45 -22 2 -43 -1
-46 -5z m68 -72 c6 -34 10 -39 48 -51 40 -12 41 -11 68 22 36 43 56 30 40 -28
-10 -36 -9 -41 17 -66 25 -26 30 -27 66 -17 58 16 71 -4 28 -41 -33 -27 -33
-29 -21 -68 10 -36 16 -41 50 -47 29 -5 39 -12 39 -25 0 -13 -10 -20 -39 -25
-34 -6 -40 -11 -50 -47 -12 -39 -12 -41 21 -68 43 -37 30 -57 -28 -41 -36 10
-41 9 -66 -17 -26 -25 -27 -30 -17 -66 16 -58 -4 -71 -40 -28 -27 33 -28 34
-68 22 -38 -12 -42 -17 -48 -51 -5 -29 -12 -39 -25 -39 -13 0 -20 10 -25 39
-6 34 -10 39 -48 51 -40 12 -41 11 -68 -22 -36 -43 -56 -30 -40 28 10 36 9 41
-17 66 -25 26 -30 27 -65 16 -29 -9 -40 -9 -50 1 -9 10 -5 18 21 40 33 27 34
28 22 68 -12 38 -17 42 -51 48 -55 9 -55 41 0 50 34 6 39 10 51 48 12 40 11
41 -22 68 -26 22 -30 30 -21 40 10 10 21 10 50 1 35 -11 40 -10 65 16 26 25
27 30 17 66 -16 58 4 71 41 28 27 -33 29 -33 68 -21 36 10 41 16 47 50 9 55
41 55 50 0z"/>
<path d="M365 644 c-22 -8 -57 -31 -78 -52 -116 -113 -65 -313 91 -358 211
-62 369 191 220 352 -62 67 -148 89 -233 58z m181 -60 c56 -45 76 -88 71 -156
-6 -104 -85 -172 -189 -165 -104 6 -172 85 -165 189 4 66 37 117 97 150 53 29
138 21 186 -18z"/>
<path d="M995 709 c-12 -22 -21 -29 -33 -24 -9 4 -22 9 -27 11 -6 3 -21 -6
-34 -20 -18 -20 -21 -28 -12 -44 15 -29 15 -30 -19 -47 -23 -12 -30 -22 -30
-45 0 -23 7 -33 30 -45 34 -17 34 -18 19 -47 -9 -16 -6 -24 12 -44 13 -14 29
-22 36 -19 7 3 19 8 27 11 10 4 20 -5 31 -25 22 -44 68 -44 90 0 11 20 21 29
31 25 8 -3 20 -8 27 -11 7 -3 23 5 36 19 18 20 21 28 12 44 -15 29 -15 30 19
47 23 12 30 22 30 45 0 23 -7 33 -30 45 -34 17 -34 18 -19 47 9 16 6 24 -12
44 -13 14 -28 23 -34 20 -5 -2 -18 -7 -27 -11 -12 -5 -21 2 -33 24 -12 24 -22
31 -45 31 -23 0 -33 -7 -45 -31z m60 -27 c7 -24 45 -41 70 -32 28 10 36 3 26
-23 -10 -27 5 -65 31 -72 23 -8 23 -22 0 -30 -26 -7 -41 -45 -31 -72 10 -26 2
-33 -26 -23 -25 9 -63 -8 -70 -32 -4 -10 -10 -18 -15 -18 -5 0 -11 8 -15 18
-7 24 -45 41 -70 32 -28 -10 -36 -3 -26 23 10 27 -5 65 -31 72 -24 8 -23 22 2
30 22 7 35 44 27 75 -6 24 2 30 28 20 25 -9 63 8 70 32 4 10 10 18 15 18 5 0
11 -8 15 -18z"/>
<path d="M1003 608 c-55 -27 -50 -114 8 -138 89 -37 151 99 63 139 -30 13 -42
13 -71 -1z m67 -43 c26 -32 -13 -81 -47 -59 -23 14 -28 41 -13 59 16 19 44 19
60 0z"/>
</g>
</svg>
